<svg viewBox="0 0 315 130" xmlns="http://www.w3.org/2000/svg" id='rakus_icon'>
<path d="M0.140625 127.999V46.0992C0.140625 31.5792 3.68063 20.2992 10.7606 12.2592C17.9606 4.21923 28.1606 0.199219 41.3606 0.199219C54.6806 0.199219 64.8806 3.43922 71.9606 9.91923C79.1606 16.3992 82.7606 25.5192 82.7606 37.2792C82.7606 44.8392 80.9606 51.0192 77.3606 55.8192C73.7606 60.6192 67.6406 64.3992 59.0006 67.1592V67.8792C68.0006 71.3592 74.0006 76.3392 77.0006 82.8192C80.1206 89.1792 81.6806 99.7392 81.6806 114.499V127.999H64.7606V104.959C64.7606 95.8392 62.1806 88.7592 57.0206 83.7192C51.8606 78.5592 44.4206 75.9792 34.7006 75.9792H24.9806V60.1392H35.2406C46.7606 60.1392 54.7406 57.7992 59.1806 53.1192C63.6206 48.4392 65.8406 42.8592 65.8406 36.3792C65.8406 30.2592 63.6206 25.3392 59.1806 21.6192C54.8606 17.8992 49.1006 16.0392 41.9006 16.0392C33.6206 16.0392 27.3806 18.3792 23.1806 23.0592C19.1006 27.7392 17.0606 35.4192 17.0606 46.0992V127.999H0.140625ZM126 127.999H110.16V56.7192H95.4L102.6 41.5992H126V127.999ZM109.44 23.5992C107.88 21.5592 107.1 19.3392 107.1 16.9392C107.1 14.5392 107.88 12.3792 109.44 10.4592C111 8.41922 113.4 7.39923 116.64 7.39923C119.88 7.39923 122.28 8.41922 123.84 10.4592C125.4 12.3792 126.18 14.5392 126.18 16.9392C126.18 19.3392 125.4 21.5592 123.84 23.5992C122.28 25.5192 119.88 26.4792 116.64 26.4792C113.4 26.4792 111 25.5192 109.44 23.5992ZM150.961 41.5992H182.101C195.421 41.5992 204.961 43.5792 210.721 47.5392C215.881 51.0192 219.121 55.2192 220.441 60.1392C221.881 64.9392 222.601 71.2992 222.601 79.2192V127.999H206.761V79.3992C206.761 77.2392 206.701 75.4392 206.581 73.9992C206.461 72.4392 206.041 70.5192 205.321 68.2392C204.601 65.8392 203.581 63.9192 202.261 62.4792C200.941 60.9192 199.021 59.5992 196.501 58.5192C193.981 57.3192 190.921 56.7192 187.321 56.7192H166.801V127.999H150.961V41.5992ZM303.319 109.099L314.119 119.719C305.839 126.439 296.359 129.799 285.679 129.799C272.359 129.799 261.679 125.539 253.639 117.019C245.599 108.379 241.579 97.6392 241.579 84.7992C241.579 72.1992 245.779 61.5792 254.179 52.9392C262.699 44.1792 273.199 39.7992 285.679 39.7992C296.359 39.7992 305.839 43.1592 314.119 49.8792L303.499 60.6792C298.459 56.8392 292.519 54.9192 285.679 54.9192C277.399 54.9192 270.799 57.6792 265.879 63.1992C261.079 68.5992 258.679 75.7992 258.679 84.7992C258.679 93.7992 261.079 101.059 265.879 106.579C270.799 111.979 277.399 114.679 285.679 114.679C292.639 114.679 298.519 112.819 303.319 109.099Z"/>
</svg>
